<?xml version="1.0" encoding="UTF-8"?>
<!DOCTYPE svg PUBLIC "-//W3C//DTD SVG 1.1//EN" "http://www.w3.org/Graphics/SVG/1.1/DTD/svg11.dtd">
<svg xmlns="http://www.w3.org/2000/svg" version="1.1" width="200px" height="103px" style="shape-rendering:geometricPrecision; text-rendering:geometricPrecision; image-rendering:optimizeQuality; fill-rule:evenodd; clip-rule:evenodd" xmlns:xlink="http://www.w3.org/1999/xlink">
<g><path style="opacity:0.843" fill="#f0552c" d="M 35.5,2.5 C 38.4101,3.97319 39.0767,6.13986 37.5,9C 36.552,9.48278 35.552,9.64945 34.5,9.5C 34.298,7.05035 34.6314,4.71702 35.5,2.5 Z"/></g>
<g><path style="opacity:0.659" fill="#f0582d" d="M 25.5,4.5 C 27.8445,4.97896 29.1778,6.47896 29.5,9C 29.3865,10.2798 28.7199,11.1131 27.5,11.5C 25.1783,9.54614 24.5117,7.21281 25.5,4.5 Z"/></g>
<g><path style="opacity:0.736" fill="#f0592e" d="M 45.5,4.5 C 48.2744,7.11084 47.9411,9.44417 44.5,11.5C 43.5,11.1667 42.8333,10.5 42.5,9.5C 43.0654,7.49078 44.0654,5.82411 45.5,4.5 Z"/></g>
<g><path style="opacity:0.753" fill="#ef582e" d="M 17.5,9.5 C 20.6209,10.2876 22.2876,12.2876 22.5,15.5C 18.4378,15.1312 16.7712,13.1312 17.5,9.5 Z"/></g>
<g><path style="opacity:0.767" fill="#f0572e" d="M 53.5,9.5 C 57.4033,11.1528 57.4033,12.9861 53.5,15C 51.9262,15.6987 50.5929,15.3654 49.5,14C 50.3574,11.9812 51.6908,10.4812 53.5,9.5 Z"/></g>
<g><path style="opacity:0.927" fill="#f0582e" d="M 32.5,12.5 C 42.1462,11.6539 49.1462,15.4872 53.5,24C 42.152,24.8325 30.8187,24.6658 19.5,23.5C 22.361,17.9631 26.6944,14.2964 32.5,12.5 Z"/></g>
<g><path style="opacity:0.822" fill="#3545aa" d="M 87.5,23.5 C 90.8066,23.0632 93.8066,23.7298 96.5,25.5C 95.8333,26.8333 94.8333,27.8333 93.5,28.5C 90.7579,26.9696 88.7579,27.6362 87.5,30.5C 87.5288,32.0293 88.1955,33.196 89.5,34C 96.0972,36.03 98.2639,40.1967 96,46.5C 92.6621,49.3181 88.8288,50.1515 84.5,49C 82.8934,47.951 82.2267,46.451 82.5,44.5C 85.5258,45.5767 88.5258,45.5767 91.5,44.5C 92.7472,42.9936 92.7472,41.4936 91.5,40C 88.0486,38.5373 85.2153,36.3706 83,33.5C 81.5713,28.7833 83.0713,25.45 87.5,23.5 Z"/></g>
<g><path style="opacity:0.883" fill="#3549a6" d="M 167.5,24.5 C 168.873,24.3433 170.207,24.51 171.5,25C 172.206,27.5831 173.539,29.7497 175.5,31.5C 173.729,32.9876 172.396,34.821 171.5,37C 172.833,39 172.833,41 171.5,43C 172.308,44.7058 173.641,45.5391 175.5,45.5C 175.5,46.8333 175.5,48.1667 175.5,49.5C 168.679,50.1764 165.679,47.0097 166.5,40C 167.45,36.969 166.783,34.1357 164.5,31.5C 165.793,29.2517 166.793,26.9184 167.5,24.5 Z"/></g>
<g><path style="opacity:0.933" fill="#ef582e" d="M 6.5,26.5 C 26.5028,26.3334 46.5028,26.5 66.5,27C 67.3081,27.3076 67.9747,27.8076 68.5,28.5C 69.6537,47.4564 69.8203,66.4564 69,85.5C 66.5883,89.9159 63.4217,93.7492 59.5,97C 44.5931,98.6334 29.5931,98.9668 14.5,98C 11.3333,94.8333 8.16667,91.6667 5,88.5C 3.3579,68.5896 3.02457,48.5896 4,28.5C 4.9947,27.9341 5.82803,27.2674 6.5,26.5 Z M 7.5,30.5 C 26.8333,30.5 46.1667,30.5 65.5,30.5C 68.0626,52.7465 58.2292,61.0799 36,55.5C 28.8333,55.3333 21.6667,55.1667 14.5,55C 12.3333,52.8333 10.1667,50.6667 8,48.5C 7.50051,42.5092 7.33385,36.5092 7.5,30.5 Z M 61.5,60.5 C 62.5735,61.2506 62.7401,62.2506 62,63.5C 60.2716,62.6477 60.105,61.6477 61.5,60.5 Z M 10.5,65.5 C 12.7602,66.2376 12.9269,67.2376 11,68.5C 10.5172,67.552 10.3505,66.552 10.5,65.5 Z M 36.5,65.5 C 41.9362,69.556 40.9362,71.2227 33.5,70.5C 33.5,71.5 33.5,72.5 33.5,73.5C 41.102,74.1054 42.4353,77.4387 37.5,83.5C 35.9991,82.2485 34.3325,81.2485 32.5,80.5C 34.396,79.5344 36.396,79.2011 38.5,79.5C 38.5674,76.234 36.9008,74.734 33.5,75C 30.5072,71.1637 31.5072,68.997 36.5,68.5C 36.5,67.5 36.5,66.5 36.5,65.5 Z M 60.5,66.5 C 62.337,66.6395 62.6704,67.3061 61.5,68.5C 60.7025,68.0431 60.3691,67.3764 60.5,66.5 Z M 10.5,71.5 C 12.7602,72.2376 12.9269,73.2376 11,74.5C 10.5172,73.552 10.3505,72.552 10.5,71.5 Z M 60.5,72.5 C 62.337,72.6395 62.6704,73.3061 61.5,74.5C 60.7025,74.0431 60.3691,73.3764 60.5,72.5 Z M 10.5,77.5 C 11.2891,77.7828 11.9558,78.2828 12.5,79C 11.184,79.5281 10.5173,79.0281 10.5,77.5 Z M 61.5,77.5 C 62.7759,78.3864 62.7759,79.3864 61.5,80.5C 60.4376,79.5754 60.4376,78.5754 61.5,77.5 Z M 11.5,82.5 C 13.2252,82.8425 13.7252,83.8425 13,85.5C 11.9614,84.7562 11.4614,83.7562 11.5,82.5 Z M 59.5,82.5 C 60.7759,83.3864 60.7759,84.3864 59.5,85.5C 58.4376,84.5754 58.4376,83.5754 59.5,82.5 Z M 16.5,86.5 C 18.7602,87.2376 18.9269,88.2376 17,89.5C 15.2716,88.6477 15.105,87.6477 16.5,86.5 Z M 54.5,87.5 C 56.337,87.6395 56.6704,88.3061 55.5,89.5C 54.7025,89.0431 54.3691,88.3764 54.5,87.5 Z M 20.5,89.5 C 23.2933,89.74 23.7933,90.74 22,92.5C 20.9614,91.7562 20.4614,90.7562 20.5,89.5 Z M 26.5,89.5 C 28.337,89.6395 28.6704,90.3061 27.5,91.5C 26.7025,91.0431 26.3691,90.3764 26.5,89.5 Z M 32.5,89.5 C 34.7602,90.2376 34.9269,91.2376 33,92.5C 31.2716,91.6477 31.105,90.6477 32.5,89.5 Z M 38.5,89.5 C 40.7602,90.2376 40.9269,91.2376 39,92.5C 37.2716,91.6477 37.105,90.6477 38.5,89.5 Z M 44.5,89.5 C 47.1368,91.1538 46.8034,91.6538 43.5,91C 44.056,90.6174 44.3893,90.1174 44.5,89.5 Z M 49.5,89.5 C 51.337,89.6395 51.6704,90.3061 50.5,91.5C 49.7025,91.0431 49.3691,90.3764 49.5,89.5 Z"/></g>
<g><path style="opacity:0.803" fill="#3546aa" d="M 100.5,29.5 C 103.535,30.4117 106.535,30.4117 109.5,29.5C 111.274,29.8868 112.941,30.5535 114.5,31.5C 120.189,27.9266 124.022,29.2599 126,35.5C 126.499,40.1548 126.666,44.8215 126.5,49.5C 124.833,49.5 123.167,49.5 121.5,49.5C 121.666,44.8215 121.499,40.1548 121,35.5C 119.946,33.2464 118.446,32.913 116.5,34.5C 115.506,39.456 115.173,44.456 115.5,49.5C 113.833,49.5 112.167,49.5 110.5,49.5C 110.5,44.1667 110.5,38.8333 110.5,33.5C 108.856,33.2865 107.356,33.6198 106,34.5C 105.501,39.4889 105.334,44.4889 105.5,49.5C 103.833,49.5 102.167,49.5 100.5,49.5C 100.5,42.8333 100.5,36.1667 100.5,29.5 Z"/></g>
<g><path style="opacity:0.794" fill="#3546aa" d="M 135.5,29.5 C 138.602,29.154 141.435,29.8207 144,31.5C 145.087,36.6383 145.92,41.8049 146.5,47C 145.333,50.1667 143.833,50.3333 142,47.5C 134.079,51.5602 130.412,49.2269 131,40.5C 133.546,37.8144 136.713,36.8144 140.5,37.5C 140.67,36.1779 140.337,35.0113 139.5,34C 137.432,33.3131 135.432,33.4798 133.5,34.5C 132.713,33.7579 132.047,32.9246 131.5,32C 132.858,31.0656 134.192,30.2323 135.5,29.5 Z M 136.5,40.5 C 137.833,40.5 139.167,40.5 140.5,40.5C 141.167,44.5 139.5,46.1667 135.5,45.5C 135.366,43.7085 135.699,42.0418 136.5,40.5 Z"/></g>
<g><path style="opacity:0.819" fill="#3445aa" d="M 150.5,29.5 C 154.5,30.8333 158.5,30.8333 162.5,29.5C 162.5,31.1667 162.5,32.8333 162.5,34.5C 160.208,34.2436 158.041,34.5769 156,35.5C 155.501,40.1548 155.334,44.8215 155.5,49.5C 153.833,49.5 152.167,49.5 150.5,49.5C 150.5,42.8333 150.5,36.1667 150.5,29.5 Z"/></g>
<g><path style="opacity:0.785" fill="#ef572e" d="M 10.5,32.5 C 13.1662,32.0658 14.3329,33.0658 14,35.5C 10.3708,37.0328 9.20414,36.0328 10.5,32.5 Z"/></g>
<g><path style="opacity:0.653" fill="#f0572c" d="M 16.5,32.5 C 19.1662,32.0658 20.3329,33.0658 20,35.5C 16.4034,37.0661 15.2368,36.0661 16.5,32.5 Z"/></g>
<g><path style="opacity:0.677" fill="#ef572d" d="M 40.5,32.5 C 43.1662,32.0658 44.3329,33.0658 44,35.5C 40.4034,37.0661 39.2368,36.0661 40.5,32.5 Z"/></g>
<g><path style="opacity:0.764" fill="#f0572e" d="M 46.5,32.5 C 48.3588,32.4609 49.6921,33.2942 50.5,35C 46.8341,37.2997 45.5008,36.4663 46.5,32.5 Z"/></g>
<g><path style="opacity:0.729" fill="#f0592c" d="M 52.5,32.5 C 54.3588,32.4609 55.6921,33.2942 56.5,35C 52.8341,37.2997 51.5008,36.4663 52.5,32.5 Z"/></g>
<g><path style="opacity:0.668" fill="#f0552b" d="M 58.5,32.5 C 63.6634,34.424 63.6634,35.5906 58.5,36C 57.3157,34.8545 57.3157,33.6879 58.5,32.5 Z"/></g>
<g><path style="opacity:0.711" fill="#ef582d" d="M 22.5,32.5 C 25.1662,32.0658 26.3329,33.0658 26,35.5C 22.4034,37.0661 21.2368,36.0661 22.5,32.5 Z"/></g>
<g><path style="opacity:0.724" fill="#ef572e" d="M 28.5,32.5 C 31.1662,32.0658 32.3329,33.0658 32,35.5C 28.4034,37.0661 27.2368,36.0661 28.5,32.5 Z"/></g>
<g><path style="opacity:0.754" fill="#f0582d" d="M 34.5,32.5 C 37.1662,32.0658 38.3329,33.0658 38,35.5C 34.4034,37.0661 33.2368,36.0661 34.5,32.5 Z"/></g>
<g><path style="opacity:0.899" fill="#f0572d" d="M 33.5,42.5 C 41.1748,42.1641 43.5082,45.3308 40.5,52C 35.4378,54.8593 32.1045,53.5259 30.5,48C 31.1242,45.9149 32.1242,44.0816 33.5,42.5 Z"/></g>
<g><path style="opacity:0.796" fill="#3545ab" d="M 143.5,63.5 C 145.167,63.5 146.833,63.5 148.5,63.5C 148.334,68.5111 148.501,73.5111 149,78.5C 150.123,75.7513 151.623,73.2513 153.5,71C 155.5,70.3333 157.5,70.3333 159.5,71C 157.494,74.0168 155.494,77.0168 153.5,80C 154.717,82.9265 156.55,85.4265 159,87.5C 159.483,88.448 159.649,89.448 159.5,90.5C 157.801,90.6602 156.134,90.4935 154.5,90C 152.667,87.5 150.833,85 149,82.5C 148.503,85.146 148.336,87.8127 148.5,90.5C 146.833,90.5 145.167,90.5 143.5,90.5C 143.5,81.5 143.5,72.5 143.5,63.5 Z"/></g>
<g><path style="opacity:0.802" fill="#3445aa" d="M 82.5,64.5 C 87.4116,64.0631 92.0783,64.8964 96.5,67C 101.117,76.5507 98.1172,81.3841 87.5,81.5C 87.5,84.5 87.5,87.5 87.5,90.5C 85.8333,90.5 84.1667,90.5 82.5,90.5C 82.5,81.8333 82.5,73.1667 82.5,64.5 Z M 87.5,68.5 C 93.9918,68.6582 95.6585,71.4916 92.5,77C 90.8659,77.4935 89.1992,77.6602 87.5,77.5C 87.5,74.5 87.5,71.5 87.5,68.5 Z"/></g>
<g><path style="opacity:0.786" fill="#3446aa" d="M 186.5,65.5 C 188.167,65.5 189.833,65.5 191.5,65.5C 191.5,67.1667 191.5,68.8333 191.5,70.5C 192.5,70.5 193.5,70.5 194.5,70.5C 194.5,71.8333 194.5,73.1667 194.5,74.5C 193.5,74.5 192.5,74.5 191.5,74.5C 191.335,78.1817 191.501,81.8484 192,85.5C 193.011,86.3366 194.178,86.67 195.5,86.5C 195.5,87.8333 195.5,89.1667 195.5,90.5C 191.51,91.3845 188.677,90.0511 187,86.5C 186.919,81.6768 186.085,77.0101 184.5,72.5C 185.894,70.3543 186.56,68.021 186.5,65.5 Z"/></g>
<g><path style="opacity:0.835" fill="#3446aa" d="M 108.5,70.5 C 115.821,69.8198 119.821,73.1532 120.5,80.5C 118.982,89.3994 113.982,92.2328 105.5,89C 100.038,81.6992 101.038,75.5326 108.5,70.5 Z M 109.5,74.5 C 113.305,74.6425 114.971,76.6425 114.5,80.5C 115.157,83.841 113.824,85.841 110.5,86.5C 108.082,85.2706 107.082,83.2706 107.5,80.5C 107.363,78.1595 108.03,76.1595 109.5,74.5 Z"/></g>
<g><path style="opacity:0.808" fill="#3545ab" d="M 130.5,70.5 C 134.122,69.924 137.122,70.924 139.5,73.5C 139.081,74.6721 138.415,75.6721 137.5,76.5C 134.959,73.8997 132.459,73.8997 130,76.5C 129.333,79.1667 129.333,81.8333 130,84.5C 132.244,86.9938 134.577,86.9938 137,84.5C 138.022,85.354 138.855,86.354 139.5,87.5C 130.983,92.548 125.65,90.2147 123.5,80.5C 124.396,75.9713 126.729,72.638 130.5,70.5 Z"/></g>
<g><path style="opacity:0.816" fill="#3545aa" d="M 168.5,70.5 C 177.384,69.5945 181.384,73.5945 180.5,82.5C 176.154,82.3343 171.821,82.501 167.5,83C 170.232,86.8019 173.399,87.3019 177,84.5C 178.682,85.8646 178.849,87.3646 177.5,89C 169.011,92.2311 164.011,89.3978 162.5,80.5C 163.003,76.1443 165.003,72.8109 168.5,70.5 Z M 169.5,74.5 C 172.657,74.0785 174.99,75.2452 176.5,78C 173.5,78.6667 170.5,78.6667 167.5,78C 168.823,77.1841 169.489,76.0174 169.5,74.5 Z"/></g>
</svg>
